<svg xmlns="http://www.w3.org/2000/svg" viewBox="0 0 512 512" role="img" aria-labelledby="title">
  <title id="title">Cookr</title>
  <rect width="512" height="512" rx="112" fill="#238b5a"/>
  <circle cx="172" cy="190" r="54" fill="#f7faf7"/>
  <circle cx="256" cy="158" r="66" fill="#f7faf7"/>
  <circle cx="340" cy="190" r="54" fill="#f7faf7"/>
  <path fill="#f7faf7" d="M132 204h248v102c0 70-56 126-126 126h-4c-65 0-118-53-118-118V204z"/>
  <path fill="#166342" d="M162 318c42 28 146 28 188 0 9-6 21 4 15 14-20 36-62 58-109 58s-89-22-109-58c-6-10 6-20 15-14z"/>
  <path fill="none" stroke="#f4b942" stroke-linecap="round" stroke-width="30" d="M144 218h224"/>
</svg>
